<?xml version="1.0" encoding="UTF-8"?>
<svg width="633px" height="133px" viewBox="0 0 633 133" version="1.1" xmlns="http://www.w3.org/2000/svg" xmlns:xlink="http://www.w3.org/1999/xlink">
    <!-- Generator: Sketch 43.2 (39069) - http://www.bohemiancoding.com/sketch -->
    <title>citydesigner-logo-full</title>
    <desc>Created with Sketch.</desc>
    <defs></defs>
    <g id="Page-1" stroke="none" stroke-width="1" fill="none" fill-rule="evenodd">
        <g id="citydesigner-logo-full">
            <g id="Group" transform="translate(11.000000, 12.000000)">
                <g id="city" stroke="#F45844" stroke-width="5">
                    <path d="M0.0367677904,103 L153.983394,103" id="Shape"></path>
                    <polyline id="Shape" points="67.3884167 41.4989737 67.3884167 0 41.7306457 0 41.7306457 63.8445749"></polyline>
                    <polyline id="Shape" points="93.0461877 41.4989737 93.0461877 0 80.2173022 0 80.2173022 41.4989737"></polyline>
                    <polyline id="Shape" points="118.703959 67.0368036 118.703959 35.1145162 105.875073 28.7300587 105.875073 67.0368036"></polyline>
                    <path d="M9.65843192,102.15132 C9.65843192,86.2827507 22.5803268,73.4212611 38.5234243,73.4212611 C54.4665218,73.4212611 67.3884167,86.2827507 67.3884167,102.15132" id="Shape"></path>
                    <path d="M53,9.57668623 L53,15.9611437" id="Shape"></path>
                    <path d="M53,22.3456012 L53,28.7300587" id="Shape"></path>
                    <path d="M53,35.1145162 L53,41.4989737" id="Shape"></path>
                    <path d="M54.5595312,79.8057186 L54.5595312,51.0756599 L93.0461877,51.0756599 L93.0461877,76.6134898 C93.0461877,90.7167564 104.534455,102.15132 118.703959,102.15132 C132.873463,102.15132 144.36173,89.3824048 144.36173,76.6134898 L102.667852,76.6134898" id="Shape"></path>
                    <path d="M93.0461877,62 L64.1811953,62" id="Shape"></path>
                    <path d="M93.0461877,75 L70.5956381,75" id="Shape"></path>
                    <polyline id="Shape" points="118.703959 51.0756599 137.947287 51.0756599 137.947287 67.0368036"></polyline>
                    <path d="M27,102.15132 L27,86.1901761" id="Shape"></path>
                    <path d="M38.5234243,87 L44.9378671,87" id="Shape"></path>
                </g>
                <g id="text" transform="translate(186.000000, 30.000000)">
                    <path d="M37.232,12.312 L40.304,8.6 C36.016,4.568 30.064,2.072 23.92,2.072 C10.928,2.072 0.56,11.992 0.56,24.536 C0.56,37.208 10.8,47.192 23.728,47.192 C29.936,47.192 35.952,44.568 40.368,40.408 L37.232,37.016 C33.712,40.344 28.912,42.392 23.984,42.392 C13.872,42.392 5.744,34.392 5.744,24.536 C5.744,14.616 13.872,6.744 23.984,6.744 C28.912,6.744 33.776,8.856 37.232,12.312 Z M53.4834284,0.28 C51.6274284,0.28 50.2194284,1.688 50.2194284,3.672 C50.2194284,5.592 51.6274284,7.064 53.4834284,7.064 C55.3394284,7.064 56.7474284,5.592 56.7474284,3.672 C56.7474284,1.688 55.3394284,0.28 53.4834284,0.28 Z M51.0514284,13.336 L51.0514284,47 L55.9794284,47 L55.9794284,13.336 L51.0514284,13.336 Z M86.3108569,40.856 C84.4548569,41.944 82.6628569,42.52 80.9348569,42.584 C78.0548569,42.584 76.4548569,40.92 76.4548569,36.824 L76.4548569,18.264 L87.1428569,18.264 L87.1428569,14.36 L76.4548569,14.36 L76.4548569,5.528 L71.5268569,5.528 L71.5268569,14.36 L66.6628569,14.36 L66.6628569,18.264 L71.5268569,18.264 L71.5268569,37.656 C71.5268569,44.312 75.1748569,47.256 80.1028569,47.192 C82.7908569,47.192 85.3508569,46.296 87.7188569,44.696 L86.3108569,40.856 Z M108.194285,51.8 L123.682285,13.336 L118.562285,13.336 L107.874285,41.368 L96.6742853,13.336 L91.4262853,13.336 L105.378285,46.744 L103.970285,49.944 C102.626285,53.144 100.450285,54.808 97.8262853,54.808 C96.1622853,54.808 94.6262853,54.296 93.0902853,53.208 L90.9782853,57.176 C93.0262853,58.84 95.2662853,59.608 98.0822853,59.608 C102.562285,59.608 106.082285,56.92 108.194285,51.8 Z" id="City" fill="#707070"></path>
                    <path d="M152.896,2.2 C165.952,2.2 175.936,11.864 175.936,24.6 C175.936,37.336 165.888,47 152.704,47 L134.784,47 L134.784,2.2 L152.896,2.2 Z M152.96,42.264 C162.944,42.264 170.752,34.712 170.752,24.664 C170.752,14.552 162.816,6.936 152.768,6.936 L139.904,6.936 L139.904,42.264 L152.96,42.264 Z M200.059428,13.144 C210.939428,13.144 216.315428,20.632 215.803428,32.024 L188.283428,32.024 C189.115428,38.68 193.915428,43.032 200.507428,43.032 C204.667428,43.032 208.315428,41.496 210.939428,38.744 L213.691428,41.624 C210.491428,45.144 205.755428,47.192 200.123428,47.192 C190.203428,47.192 183.355428,40.216 183.355428,30.168 C183.355428,20.12 190.267428,13.208 200.059428,13.144 Z M188.283428,28.056 L211.323428,28.056 C211.003428,21.528 206.651428,17.304 200.059428,17.304 C193.595428,17.304 188.987428,21.528 188.283428,28.056 Z M244.342857,19.992 L246.262857,16.152 C243.446857,14.296 239.542857,13.08 235.510857,13.08 C229.366857,13.08 223.798857,15.832 223.798857,22.232 C223.734857,34.136 242.614857,29.976 242.422857,38.168 C242.358857,41.56 239.158857,43.096 235.190857,43.096 C231.222857,43.096 226.870857,41.496 223.990857,38.808 L222.070857,42.456 C225.270857,45.528 230.198857,47.192 234.998857,47.192 C241.462857,47.192 247.350857,44.248 247.350857,37.656 C247.350857,25.56 228.534857,29.464 228.534857,21.848 C228.534857,18.648 231.414857,17.304 235.190857,17.304 C238.326857,17.304 241.718857,18.328 244.342857,19.992 Z M260.146285,0.28 C258.290285,0.28 256.882285,1.688 256.882285,3.672 C256.882285,5.592 258.290285,7.064 260.146285,7.064 C262.002285,7.064 263.410285,5.592 263.410285,3.672 C263.410285,1.688 262.002285,0.28 260.146285,0.28 Z M257.714285,13.336 L257.714285,47 L262.642285,47 L262.642285,13.336 L257.714285,13.336 Z M301.357714,13.336 L306.349714,13.336 L306.349714,43.48 C306.349714,53.336 299.629714,59.544 289.389714,59.544 C284.077714,59.48 279.661714,57.752 275.565714,54.616 L277.869714,50.968 C281.197714,53.72 284.717714,55.192 289.197714,55.256 C296.557714,55.256 301.357714,50.712 301.357714,43.608 L301.357714,38.488 C298.989714,42.968 294.637714,45.528 288.941714,45.528 C279.853714,45.528 273.581714,38.808 273.581714,29.272 C273.581714,19.8 279.789714,13.208 288.813714,13.144 C294.573714,13.08 298.925714,15.704 301.357714,20.184 L301.357714,13.336 Z M289.837714,41.432 C296.557714,41.432 301.357714,36.376 301.357714,29.4 C301.357714,22.36 296.557714,17.304 289.837714,17.304 C283.053714,17.304 278.317714,22.36 278.253714,29.4 C278.317714,36.376 283.053714,41.432 289.837714,41.432 Z M337.897142,13.144 C331.753142,13.208 327.209142,15.64 324.841142,20.76 L324.841142,13.336 L319.849142,13.336 L319.849142,47 L324.841142,47 L324.841142,28.952 C325.417142,22.424 329.513142,18.008 336.169142,17.944 C342.121142,17.944 345.705142,21.528 345.705142,27.544 L345.705142,47 L350.697142,47 L350.697142,26.264 C350.697142,18.072 345.961142,13.144 337.897142,13.144 Z M377.316571,13.144 C388.196571,13.144 393.572571,20.632 393.060571,32.024 L365.540571,32.024 C366.372571,38.68 371.172571,43.032 377.764571,43.032 C381.924571,43.032 385.572571,41.496 388.196571,38.744 L390.948571,41.624 C387.748571,45.144 383.012571,47.192 377.380571,47.192 C367.460571,47.192 360.612571,40.216 360.612571,30.168 C360.612571,20.12 367.524571,13.208 377.316571,13.144 Z M365.540571,28.056 L388.580571,28.056 C388.260571,21.528 383.908571,17.304 377.316571,17.304 C370.852571,17.304 366.244571,21.528 365.540571,28.056 Z M408.799999,20.824 L408.799999,13.336 L403.807999,13.336 L403.807999,47 L408.799999,47 L408.799999,29.08 C409.375999,22.296 413.791999,17.88 420.895999,18.008 L420.895999,13.144 C415.199999,13.208 411.039999,15.896 408.799999,20.824 Z" id="Designer" fill="#F45844"></path>
                </g>
            </g>
        </g>
    </g>
</svg>