<?xml version="1.0" encoding="UTF-8"?>
<svg width="614px" height="133px" viewBox="0 0 614 133" version="1.1" xmlns="http://www.w3.org/2000/svg" xmlns:xlink="http://www.w3.org/1999/xlink">
    <!-- Generator: Sketch 43.2 (39069) - http://www.bohemiancoding.com/sketch -->
    <title>citydesigner-logo-full</title>
    <desc>Created with Sketch.</desc>
    <defs></defs>
    <g id="Page-1" stroke="none" stroke-width="1" fill="none" fill-rule="evenodd">
        <g id="citydesigner-logo-full">
            <g id="Group" transform="translate(11.000000, 12.000000)">
                <g id="city" stroke="#F45844" stroke-width="5">
                    <path d="M0.0367677904,103 L153.983394,103" id="Shape"></path>
                    <polyline id="Shape" points="67.3884167 41.4989737 67.3884167 0 41.7306457 0 41.7306457 63.8445749"></polyline>
                    <polyline id="Shape" points="93.0461877 41.4989737 93.0461877 0 80.2173022 0 80.2173022 41.4989737"></polyline>
                    <polyline id="Shape" points="118.703959 67.0368036 118.703959 35.1145162 105.875073 28.7300587 105.875073 67.0368036"></polyline>
                    <path d="M9.65843192,102.15132 C9.65843192,86.2827507 22.5803268,73.4212611 38.5234243,73.4212611 C54.4665218,73.4212611 67.3884167,86.2827507 67.3884167,102.15132" id="Shape"></path>
                    <path d="M53,9.57668623 L53,15.9611437" id="Shape"></path>
                    <path d="M53,22.3456012 L53,28.7300587" id="Shape"></path>
                    <path d="M53,35.1145162 L53,41.4989737" id="Shape"></path>
                    <path d="M54.5595312,79.8057186 L54.5595312,51.0756599 L93.0461877,51.0756599 L93.0461877,76.6134898 C93.0461877,90.7167564 104.534455,102.15132 118.703959,102.15132 C132.873463,102.15132 144.36173,89.3824048 144.36173,76.6134898 L102.667852,76.6134898" id="Shape"></path>
                    <path d="M93.0461877,62 L64.1811953,62" id="Shape"></path>
                    <path d="M93.0461877,75 L70.5956381,75" id="Shape"></path>
                    <polyline id="Shape" points="118.703959 51.0756599 137.947287 51.0756599 137.947287 67.0368036"></polyline>
                    <path d="M27,102.15132 L27,86.1901761" id="Shape"></path>
                    <path d="M38.5234243,87 L44.9378671,87" id="Shape"></path>
                </g>
                <path d="M209.232,42.312 L212.304,38.6 C208.016,34.568 202.064,32.072 195.92,32.072 C182.928,32.072 172.56,41.992 172.56,54.536 C172.56,67.208 182.8,77.192 195.728,77.192 C201.936,77.192 207.952,74.568 212.368,70.408 L209.232,67.016 C205.712,70.344 200.912,72.392 195.984,72.392 C185.872,72.392 177.744,64.392 177.744,54.536 C177.744,44.616 185.872,36.744 195.984,36.744 C200.912,36.744 205.776,38.856 209.232,42.312 Z M225.483428,30.28 C223.627428,30.28 222.219428,31.688 222.219428,33.672 C222.219428,35.592 223.627428,37.064 225.483428,37.064 C227.339428,37.064 228.747428,35.592 228.747428,33.672 C228.747428,31.688 227.339428,30.28 225.483428,30.28 Z M223.051428,43.336 L223.051428,77 L227.979428,77 L227.979428,43.336 L223.051428,43.336 Z M258.310857,70.856 C256.454857,71.944 254.662857,72.52 252.934857,72.584 C250.054857,72.584 248.454857,70.92 248.454857,66.824 L248.454857,48.264 L259.142857,48.264 L259.142857,44.36 L248.454857,44.36 L248.454857,35.528 L243.526857,35.528 L243.526857,44.36 L238.662857,44.36 L238.662857,48.264 L243.526857,48.264 L243.526857,67.656 C243.526857,74.312 247.174857,77.256 252.102857,77.192 C254.790857,77.192 257.350857,76.296 259.718857,74.696 L258.310857,70.856 Z M280.194285,81.8 L295.682285,43.336 L290.562285,43.336 L279.874285,71.368 L268.674285,43.336 L263.426285,43.336 L277.378285,76.744 L275.970285,79.944 C274.626285,83.144 272.450285,84.808 269.826285,84.808 C268.162285,84.808 266.626285,84.296 265.090285,83.208 L262.978285,87.176 C265.026285,88.84 267.266285,89.608 270.082285,89.608 C274.562285,89.608 278.082285,86.92 280.194285,81.8 Z" id="City" fill="#707070"></path>
                <path d="M324.896,32.2 C337.952,32.2 347.936,41.864 347.936,54.6 C347.936,67.336 337.888,77 324.704,77 L306.784,77 L306.784,32.2 L324.896,32.2 Z M324.96,72.264 C334.944,72.264 342.752,64.712 342.752,54.664 C342.752,44.552 334.816,36.936 324.768,36.936 L311.904,36.936 L311.904,72.264 L324.96,72.264 Z M372.059428,43.144 C382.939428,43.144 388.315428,50.632 387.803428,62.024 L360.283428,62.024 C361.115428,68.68 365.915428,73.032 372.507428,73.032 C376.667428,73.032 380.315428,71.496 382.939428,68.744 L385.691428,71.624 C382.491428,75.144 377.755428,77.192 372.123428,77.192 C362.203428,77.192 355.355428,70.216 355.355428,60.168 C355.355428,50.12 362.267428,43.208 372.059428,43.144 Z M360.283428,58.056 L383.323428,58.056 C383.003428,51.528 378.651428,47.304 372.059428,47.304 C365.595428,47.304 360.987428,51.528 360.283428,58.056 Z M416.342857,49.992 L418.262857,46.152 C415.446857,44.296 411.542857,43.08 407.510857,43.08 C401.366857,43.08 395.798857,45.832 395.798857,52.232 C395.734857,64.136 414.614857,59.976 414.422857,68.168 C414.358857,71.56 411.158857,73.096 407.190857,73.096 C403.222857,73.096 398.870857,71.496 395.990857,68.808 L394.070857,72.456 C397.270857,75.528 402.198857,77.192 406.998857,77.192 C413.462857,77.192 419.350857,74.248 419.350857,67.656 C419.350857,55.56 400.534857,59.464 400.534857,51.848 C400.534857,48.648 403.414857,47.304 407.190857,47.304 C410.326857,47.304 413.718857,48.328 416.342857,49.992 Z M432.146285,30.28 C430.290285,30.28 428.882285,31.688 428.882285,33.672 C428.882285,35.592 430.290285,37.064 432.146285,37.064 C434.002285,37.064 435.410285,35.592 435.410285,33.672 C435.410285,31.688 434.002285,30.28 432.146285,30.28 Z M429.714285,43.336 L429.714285,77 L434.642285,77 L434.642285,43.336 L429.714285,43.336 Z M473.357714,43.336 L478.349714,43.336 L478.349714,73.48 C478.349714,83.336 471.629714,89.544 461.389714,89.544 C456.077714,89.48 451.661714,87.752 447.565714,84.616 L449.869714,80.968 C453.197714,83.72 456.717714,85.192 461.197714,85.256 C468.557714,85.256 473.357714,80.712 473.357714,73.608 L473.357714,68.488 C470.989714,72.968 466.637714,75.528 460.941714,75.528 C451.853714,75.528 445.581714,68.808 445.581714,59.272 C445.581714,49.8 451.789714,43.208 460.813714,43.144 C466.573714,43.08 470.925714,45.704 473.357714,50.184 L473.357714,43.336 Z M461.837714,71.432 C468.557714,71.432 473.357714,66.376 473.357714,59.4 C473.357714,52.36 468.557714,47.304 461.837714,47.304 C455.053714,47.304 450.317714,52.36 450.253714,59.4 C450.317714,66.376 455.053714,71.432 461.837714,71.432 Z M509.897142,43.144 C503.753142,43.208 499.209142,45.64 496.841142,50.76 L496.841142,43.336 L491.849142,43.336 L491.849142,77 L496.841142,77 L496.841142,58.952 C497.417142,52.424 501.513142,48.008 508.169142,47.944 C514.121142,47.944 517.705142,51.528 517.705142,57.544 L517.705142,77 L522.697142,77 L522.697142,56.264 C522.697142,48.072 517.961142,43.144 509.897142,43.144 Z M549.316571,43.144 C560.196571,43.144 565.572571,50.632 565.060571,62.024 L537.540571,62.024 C538.372571,68.68 543.172571,73.032 549.764571,73.032 C553.924571,73.032 557.572571,71.496 560.196571,68.744 L562.948571,71.624 C559.748571,75.144 555.012571,77.192 549.380571,77.192 C539.460571,77.192 532.612571,70.216 532.612571,60.168 C532.612571,50.12 539.524571,43.208 549.316571,43.144 Z M537.540571,58.056 L560.580571,58.056 C560.260571,51.528 555.908571,47.304 549.316571,47.304 C542.852571,47.304 538.244571,51.528 537.540571,58.056 Z M580.799999,50.824 L580.799999,43.336 L575.807999,43.336 L575.807999,77 L580.799999,77 L580.799999,59.08 C581.375999,52.296 585.791999,47.88 592.895999,48.008 L592.895999,43.144 C587.199999,43.208 583.039999,45.896 580.799999,50.824 Z" id="Designer" fill="#F45844"></path>
            </g>
        </g>
    </g>
</svg>