<svg width="256" height="198" viewBox="0 0 256 198" xmlns="http://www.w3.org/2000/svg"><title>citydesigner.org logo</title><g stroke-width="6" fill="none" fill-rule="evenodd"><path d="M6.058 179h244.916M113.21 80.105V14H72.39v101.7m81.638-35.595V14h-20.41v66.105m61.229 40.681v-50.85l-20.41-10.17v61.02M21.366 176.72c0-25.277 20.557-45.764 45.92-45.764 25.365 0 45.923 20.487 45.923 45.765M92 29.255v10.17m0 10.17v10.17m0 10.17v10.17"/><path d="M92.8 141.126V95.36h61.228v40.68c0 22.467 18.277 40.68 40.82 40.68 22.542 0 40.818-20.34 40.818-40.68h-66.33M154.028 115h-45.922m45.922 20H118.31m76.537-39.64h30.615v25.426M50 176.72v-25.424M67.287 154h10.205"/></g></svg>