<svg width="256" height="256" viewBox="0 0 256 256" xmlns="http://www.w3.org/2000/svg"><title>citydesigner-logo</title><g stroke="#F45844" stroke-width="6" fill="none" fill-rule="evenodd"><path d="M6.058 208h244.916m-137.765-98.895V43h-40.82v101.7m81.639-35.595V43h-20.41v66.105m61.229 40.681v-50.85l-20.41-10.17v61.02M21.366 205.721c0-25.278 20.557-45.765 45.921-45.765s45.922 20.487 45.922 45.765M92 58.255v10.17m0 10.17v10.17m0 10.17v10.17"/><path d="M92.8 170.126V124.36h61.228v40.68c0 22.466 18.277 40.68 40.82 40.68 22.542 0 40.818-20.34 40.818-40.68h-66.33M154.028 144h-45.922m45.922 20h-35.717m76.536-39.64h30.615v25.426M50 205.721v-25.425M67.287 183h10.205"/></g></svg>