<svg width="614" height="133" viewBox="0 0 614 133" xmlns="http://www.w3.org/2000/svg"><title>citydesigner-logo-full</title><g fill="none" fill-rule="evenodd"><g stroke="#F45844" stroke-width="5"><path d="M11.037 115h153.946M78.388 53.499V12H52.731v63.845m51.315-22.346V12H91.217v41.499m38.487 25.538V47.115l-12.829-6.385v38.307m-96.217 35.114c0-15.868 12.922-28.73 28.865-28.73 15.944 0 28.865 12.862 28.865 28.73M64 21.577v6.384m0 6.385v6.384m0 6.385v6.384"/><path d="M65.56 91.806v-28.73h38.486v25.537c0 14.104 11.488 25.538 25.658 25.538 14.17 0 25.658-12.769 25.658-25.538h-41.694M104.046 74H75.181m28.865 13h-22.45m48.108-23.924h19.243v15.96M38 114.151v-15.96M49.523 99h6.415"/></g><path d="M220.232 54.312l3.072-3.712c-4.288-4.032-10.24-6.528-16.384-6.528-12.992 0-23.36 9.92-23.36 22.464 0 12.672 10.24 22.656 23.168 22.656 6.208 0 12.224-2.624 16.64-6.784l-3.136-3.392c-3.52 3.328-8.32 5.376-13.248 5.376-10.112 0-18.24-8-18.24-17.856 0-9.92 8.128-17.792 18.24-17.792 4.928 0 9.792 2.112 13.248 5.568zm16.251-12.032c-1.856 0-3.264 1.408-3.264 3.392 0 1.92 1.408 3.392 3.264 3.392 1.856 0 3.264-1.472 3.264-3.392 0-1.984-1.408-3.392-3.264-3.392zm-2.432 13.056V89h4.928V55.336h-4.928zm35.26 27.52c-1.856 1.088-3.648 1.664-5.376 1.728-2.88 0-4.48-1.664-4.48-5.76v-18.56h10.688V56.36h-10.688v-8.832h-4.928v8.832h-4.864v3.904h4.864v19.392c0 6.656 3.648 9.6 8.576 9.536 2.688 0 5.248-.896 7.616-2.496l-1.408-3.84zM291.194 93.8l15.488-38.464h-5.12l-10.688 28.032-11.2-28.032h-5.248l13.952 33.408-1.408 3.2c-1.344 3.2-3.52 4.864-6.144 4.864-1.664 0-3.2-.512-4.736-1.6l-2.112 3.968c2.048 1.664 4.288 2.432 7.104 2.432 4.48 0 8-2.688 10.112-7.808z" fill="#707070"/><path d="M335.896 44.2c13.056 0 23.04 9.664 23.04 22.4 0 12.736-10.048 22.4-23.232 22.4h-17.92V44.2h18.112zm.064 40.064c9.984 0 17.792-7.552 17.792-17.6 0-10.112-7.936-17.728-17.984-17.728h-12.864v35.328h13.056zm47.1-29.12c10.88 0 16.255 7.488 15.743 18.88h-27.52c.832 6.656 5.632 11.008 12.224 11.008 4.16 0 7.808-1.536 10.432-4.288l2.752 2.88c-3.2 3.52-7.936 5.568-13.568 5.568-9.92 0-16.768-6.976-16.768-17.024 0-10.048 6.912-16.96 16.704-17.024zm-11.777 14.912h23.04c-.32-6.528-4.672-10.752-11.264-10.752-6.464 0-11.072 4.224-11.776 10.752zm56.06-8.064l1.92-3.84c-2.816-1.856-6.72-3.072-10.752-3.072-6.144 0-11.712 2.752-11.712 9.152-.064 11.904 18.816 7.744 18.624 15.936-.064 3.392-3.264 4.928-7.232 4.928-3.968 0-8.32-1.6-11.2-4.288l-1.92 3.648c3.2 3.072 8.128 4.736 12.928 4.736 6.464 0 12.352-2.944 12.352-9.536 0-12.096-18.816-8.192-18.816-15.808 0-3.2 2.88-4.544 6.656-4.544 3.136 0 6.528 1.024 9.152 2.688zm15.803-19.712c-1.856 0-3.264 1.408-3.264 3.392 0 1.92 1.408 3.392 3.264 3.392 1.856 0 3.264-1.472 3.264-3.392 0-1.984-1.408-3.392-3.264-3.392zm-2.432 13.056V89h4.928V55.336h-4.928zm43.644 0h4.992V85.48c0 9.856-6.72 16.064-16.96 16.064-5.312-.064-9.728-1.792-13.824-4.928l2.304-3.648c3.328 2.752 6.848 4.224 11.328 4.288 7.36 0 12.16-4.544 12.16-11.648v-5.12c-2.368 4.48-6.72 7.04-12.416 7.04-9.088 0-15.36-6.72-15.36-16.256 0-9.472 6.208-16.064 15.232-16.128 5.76-.064 10.112 2.56 12.544 7.04v-6.848zm-11.52 28.096c6.72 0 11.52-5.056 11.52-12.032 0-7.04-4.8-12.096-11.52-12.096-6.784 0-11.52 5.056-11.584 12.096.064 6.976 4.8 12.032 11.584 12.032zm48.06-28.288c-6.145.064-10.689 2.496-13.057 7.616v-7.424h-4.992V89h4.992V70.952c.576-6.528 4.672-10.944 11.328-11.008 5.952 0 9.536 3.584 9.536 9.6V89h4.992V68.264c0-8.192-4.736-13.12-12.8-13.12zm39.419 0c10.88 0 16.256 7.488 15.744 18.88h-27.52c.832 6.656 5.632 11.008 12.224 11.008 4.16 0 7.808-1.536 10.432-4.288l2.752 2.88c-3.2 3.52-7.936 5.568-13.568 5.568-9.92 0-16.768-6.976-16.768-17.024 0-10.048 6.912-16.96 16.704-17.024zM548.54 70.056h23.04c-.32-6.528-4.672-10.752-11.264-10.752-6.464 0-11.072 4.224-11.776 10.752zm43.259-7.232v-7.488h-4.992V89h4.992V71.08c.576-6.784 4.992-11.2 12.096-11.072v-4.864c-5.696.064-9.856 2.752-12.096 7.68z" fill="#F45844"/></g></svg>